<svg xmlns="http://www.w3.org/2000/svg" width="66.331" height="70.071" viewBox="0 0 66.331 70.071">
  <g id="jquery-original-wordmark" transform="translate(-6.273 -1.634)">
    <path id="パス_28" data-name="パス 28" d="M25.514,12.427c-4.224,6.07-3.7,13.968-.471,20.418l.236.458.151.291.094.167.168.3c.1.176.2.352.308.528l.176.29q.175.281.357.559l.152.235c.168.251.34.5.518.747l.015.019.087.118c.153.211.311.421.472.628l.178.226c.143.18.288.358.436.537l.167.2c.2.233.4.467.607.694l.012.013.024.026c.2.22.408.435.618.651l.2.2c.162.163.327.323.493.483l.2.192c.222.209.446.415.676.615l.01.009.118.1q.3.263.614.518l.254.2c.169.135.34.269.511.4l.274.207q.284.209.574.412l.209.148.058.041c.183.126.371.248.557.369l.241.161c.287.181.579.361.873.534l.241.136c.217.125.434.248.655.367l.363.187.469.244.108.052.192.092c.245.117.493.233.743.344l.157.07q.429.188.866.361l.211.083c.269.1.543.206.818.3l.1.036c.3.106.606.2.912.3l.22.065a8.9,8.9,0,0,0,.941.265C63.1,50.753,69.036,34.754,69.036,34.754c-4.983,6.492-13.828,8.2-22.209,6.3-.318-.072-.626-.171-.935-.262l-.233-.071q-.453-.138-.9-.293l-.124-.044q-.4-.141-.794-.295L43.618,40c-.288-.114-.575-.233-.857-.356l-.171-.076q-.364-.164-.723-.336l-.209-.1c-.188-.091-.373-.188-.56-.284l-.373-.2c-.227-.121-.449-.247-.67-.376l-.226-.126q-.441-.261-.873-.535l-.236-.157q-.314-.2-.621-.413l-.2-.141q-.3-.209-.587-.424l-.26-.2c-.178-.136-.355-.273-.53-.414l-.236-.19q-.334-.274-.66-.557l-.072-.06q-.352-.31-.694-.631l-.2-.188q-.254-.24-.5-.489l-.2-.2q-.312-.319-.612-.647l-.03-.033q-.317-.347-.62-.706l-.163-.193q-.227-.273-.446-.552l-.164-.2q-.263-.34-.516-.687c-4.652-6.347-6.324-15.1-2.605-22.288m9.813-.934c-3.054,4.4-2.889,10.28-.506,14.928A19.389,19.389,0,0,0,39.47,24.5a10.68,10.68,0,0,0,1.572,1.964c.22.242.45.479.685.711l.18.179c.228.221.46.439.7.65l.029.025.007.007c.265.233.539.456.818.677l.186.145c.279.214.564.424.855.625l.025.019.391.257.185.122c.209.134.419.264.634.388l.09.053c.185.106.372.211.56.313l.2.1.392.2.059.027c.269.132.541.26.818.381l.18.075c.222.094.445.186.67.272l.287.106c.2.076.409.145.616.214l.278.089a6.912,6.912,0,0,0,.89.257c15.771,2.612,19.411-9.53,19.411-9.53-3.282,4.727-9.638,6.982-16.42,5.222q-.45-.119-.893-.258l-.268-.087q-.314-.1-.624-.215l-.282-.105q-.339-.13-.673-.272l-.181-.076q-.416-.181-.823-.383l-.413-.21-.238-.122c-.176-.1-.35-.194-.522-.3l-.125-.071q-.32-.186-.632-.386l-.191-.127-.409-.271q-.434-.3-.853-.623L46.45,24.4a19.013,19.013,0,0,1-6.44-9.179A14.245,14.245,0,0,1,41.122,3.79m8.53-.3a9.191,9.191,0,0,0-.728,8.868,12.487,12.487,0,0,0,7.168,6.7l.392.135.172.055a4.787,4.787,0,0,0,.562.162c8.708,1.683,11.07-4.468,11.7-5.374-2.069,2.979-5.546,3.694-9.812,2.658q-.524-.134-1.032-.319a12.814,12.814,0,0,1-1.226-.509A12.749,12.749,0,0,1,54.7,14.556c-3.818-2.9-6.189-8.422-3.7-12.922" transform="translate(-6.897)" fill="#0868ac"/>
    <path id="パス_29" data-name="パス 29" d="M40.794,94.074H38.366a.319.319,0,0,0-.3.24L37.207,98.3l-.862,3.987a.318.318,0,0,1-.3.24H34.33c-1.7,0-1.5-1.176-1.155-2.787l.01-.049.038-.2.007-.038.078-.414.083-.443.088-.451.392-1.914.392-1.914a.193.193,0,0,0-.2-.241H31.576a.316.316,0,0,0-.3.24l-.536,2.542L30.209,99.4v0l-.049.237c-.617,2.817-.454,5.5,2.9,5.588l.1,0h5.264a.318.318,0,0,0,.3-.24l1.135-5.337,1.135-5.337A.191.191,0,0,0,40.794,94.074Zm-26-.028H12.128a.323.323,0,0,0-.3.239L11.575,95.4l-.253,1.116a.188.188,0,0,0,.191.239H14.2a.319.319,0,0,0,.3-.24l.244-1.115.244-1.115A.19.19,0,0,0,14.793,94.046Zm-.773,3.472H11.333a.323.323,0,0,0-.3.239l-.377,1.672-.377,1.671-.105.479-.363,1.706-.362,1.707c-.028.132-.086.344-.129.472,0,0-.5,1.494-1.346,1.477l-.106,0-.73-.013h0a.321.321,0,0,0-.3.234l-.279,1.171L6.28,109.5a.188.188,0,0,0,.187.241c.479.006,1.551.018,2.2.018,2.108,0,3.22-1.168,3.931-4.529l.834-3.857.782-3.618A.19.19,0,0,0,14.02,97.518Zm49.476-.9-.111-.46-.11-.471-.056-.238c-.218-.849-.859-1.337-2.25-1.337l-2.166,0-1.995,0H54.563a.317.317,0,0,0-.3.24l-.1.469-.117.554-.033.156-1.011,4.734-.959,4.494a1.049,1.049,0,0,0-.022.36c.016.066.275.12.41.12H54.46a1.27,1.27,0,0,0,.379-.054c.074-.03.182-.295.209-.426l.36-1.78.36-1.781v0l.048-.237.437-2.045.386-1.806a.319.319,0,0,1,.3-.24l6.371,0A.185.185,0,0,0,63.5,96.614Zm8.2-4.16-.491,0H69.168a.519.519,0,0,0-.383.2l-4.509,6.606c-.076.111-.163.1-.192-.036l-.332-1.455a.323.323,0,0,0-.3-.239h-2.9a.175.175,0,0,0-.178.235l1.3,4.551a1.079,1.079,0,0,1,.006.473l-.566,2.2a.181.181,0,0,0,.184.237h2.865a.333.333,0,0,0,.306-.237l.566-2.2a1.448,1.448,0,0,1,.209-.434l7.321-9.716c.082-.108.037-.2-.1-.195Zm-23.03,5.7v0a.3.3,0,0,1-.287.253H44.705a.158.158,0,0,1-.173-.193l0-.009h0l0-.012.017-.063a2.3,2.3,0,0,1,2.41-1.545c1.513,0,1.809.738,1.706,1.57Zm-1.078-4.242c-4.717,0-5.835,2.863-6.463,5.754-.627,2.946-.573,5.7,4.309,5.7h.773l.586,0h.01c1.289-.005,2.582-.015,3.106-.019a.318.318,0,0,0,.292-.241l.2-.966.038-.188.236-1.152a.192.192,0,0,0-.2-.24H46.09c-1.746,0-2.264-.464-2.073-1.828h7.019a.289.289,0,0,0,.256-.181l.017-.061h0C52.35,96.558,52.051,93.911,47.589,93.911Zm-22.3,4.227-.067.235h0l-.53,1.878-.53,1.877a.342.342,0,0,1-.312.236h-2.8c-2.127,0-2.645-1.664-2.127-4.117.518-2.509,1.533-4.069,3.626-4.227,2.861-.216,3.433,1.8,2.742,4.118Zm1.923,4.082a31.441,31.441,0,0,0,1.622-5.064c.41-2.481-.833-6.081-5.633-6.081-4.772,0-6.845,3.436-7.635,7.172-.791,3.763.245,7.063,4.99,7.036l3.744-.014,3.5-.013a.339.339,0,0,0,.307-.238l.61-2.325a.182.182,0,0,0-.183-.239l-.584,0-.584,0a.15.15,0,0,1-.166-.174l.016-.055Zm23.624-2.149a.161.161,0,1,1-.161-.161A.161.161,0,0,1,50.839,100.071Z" transform="translate(0 -38.055)" fill="#131b28"/>
  </g>
</svg>
