<svg xmlns="http://www.w3.org/2000/svg" width="69.189" height="35.063" viewBox="0 0 69.189 35.063">
  <g id="php-original" transform="translate(-5.433 -34.306)">
    <path id="パス_15" data-name="パス 15" d="M40.027,69.369c19.106,0,34.595-7.85,34.595-17.532S59.133,34.306,40.027,34.306,5.433,42.156,5.433,51.838,20.921,69.369,40.027,69.369Z" fill="#6181b6"/>
    <path id="パス_16" data-name="パス 16" d="M53.271,59.967l1.716-8.831c.387-1.994.065-3.481-.956-4.42-.99-.909-2.67-1.351-5.138-1.351H45.92l.85-4.376a.564.564,0,0,0-.552-.67h-4.1a.563.563,0,0,0-.553.455l-1.822,9.376a5.277,5.277,0,0,0-1.227-2.711c-1.2-1.377-3.106-2.075-5.656-2.075H24.907a.561.561,0,0,0-.552.455L20.667,64.8a.563.563,0,0,0,.552.67h4.134a.563.563,0,0,0,.553-.455l.892-4.59h3.078a13.275,13.275,0,0,0,4.031-.52,7.884,7.884,0,0,0,2.959-1.772,9.071,9.071,0,0,0,1.748-2.17l-.737,3.793a.561.561,0,0,0,.552.67h4.1a.563.563,0,0,0,.553-.455l2.025-10.418h2.814c1.2,0,1.55.239,1.645.341s.267.424.065,1.464L48,59.752a.561.561,0,0,0,.552.67h4.167a.561.561,0,0,0,.552-.454Zm-19.016-7.3a4.5,4.5,0,0,1-1.443,2.807,5.587,5.587,0,0,1-3.381.825H27.6l1.325-6.818h2.369c1.741,0,2.442.372,2.723.684A3.038,3.038,0,0,1,34.255,52.67Zm36.556-5.23c-1.2-1.377-3.106-2.075-5.657-2.075H57.2a.562.562,0,0,0-.553.455L52.963,64.8a.563.563,0,0,0,.552.67H57.65a.563.563,0,0,0,.552-.455l.893-4.59h3.077A13.273,13.273,0,0,0,66.2,59.9a7.88,7.88,0,0,0,2.959-1.772,8.8,8.8,0,0,0,2.767-4.956C72.4,50.757,72.023,48.827,70.811,47.44Zm-4.288,5.23a4.5,4.5,0,0,1-1.443,2.807A5.584,5.584,0,0,1,61.7,56.3H59.866l1.325-6.818H63.56c1.741,0,2.442.372,2.723.684A3.038,3.038,0,0,1,66.523,52.67Z" transform="translate(-6.235 -2.463)" fill="#fff"/>
    <path id="パス_17" data-name="パス 17" d="M31.682,49.312q2.356,0,3.141.87t.374,2.986a5,5,0,0,1-1.652,3.146,6.076,6.076,0,0,1-3.724.942H27.305l1.543-7.943h2.833ZM21.609,65.3h4.134l.981-5.046h3.541a12.669,12.669,0,0,0,3.857-.492,7.3,7.3,0,0,0,2.752-1.651,8.243,8.243,0,0,0,2.6-4.649q.656-3.375-.99-5.257t-5.232-1.883H25.3L21.609,65.3Zm20.9-24.024h4.1l-.981,5.046h3.654q3.449,0,4.758,1.2t.785,3.9L53.109,60.25H48.942l1.631-8.4a2.282,2.282,0,0,0-.2-1.955,2.886,2.886,0,0,0-2.058-.521H45.032L42.919,60.25h-4.1l3.688-18.979ZM63.95,49.312q2.356,0,3.14.87t.374,2.986a5,5,0,0,1-1.653,3.146,6.075,6.075,0,0,1-3.724.942H59.574l1.543-7.943H63.95ZM53.878,65.3h4.134l.981-5.046h3.541a12.669,12.669,0,0,0,3.857-.492,7.3,7.3,0,0,0,2.752-1.651,8.239,8.239,0,0,0,2.6-4.649q.655-3.375-.99-5.257t-5.233-1.883h-7.95L53.878,65.3Z" transform="translate(-6.625 -2.853)" fill="#000004"/>
  </g>
</svg>
