<svg xmlns="http://www.w3.org/2000/svg" width="60.028" height="60.029" viewBox="0 0 60.028 60.029">
  <g id="javascript-original" transform="translate(-1.408 -1.408)">
    <path id="パス_26" data-name="パス 26" d="M1.408,1.408H61.436V61.437H1.408Z" fill="#f0db4f"/>
    <path id="パス_27" data-name="パス 27" d="M73.648,76.678c-.44-2.739-2.225-5.039-7.515-7.184-1.838-.844-3.886-1.449-4.5-2.842a3.1,3.1,0,0,1-.108-1.757c.394-1.592,2.294-2.088,3.8-1.632a4.182,4.182,0,0,1,2.442,2.265c2.59-1.677,2.585-1.666,4.394-2.819a11.232,11.232,0,0,0-1.449-1.94c-1.558-1.74-3.681-2.636-7.076-2.568l-1.768.229a8.025,8.025,0,0,0-4.257,2.51,7.859,7.859,0,0,0,1.427,11.19c3.407,2.557,8.411,3.138,9.05,5.529.622,2.927-2.151,3.875-4.907,3.538-2.031-.422-3.161-1.455-4.382-3.332-2.248,1.3-2.248,1.3-4.559,2.63a10.145,10.145,0,0,0,2.043,2.779c4.348,4.411,15.23,4.194,17.181-2.482A8.256,8.256,0,0,0,73.648,76.678ZM51.166,58.555H45.551l-.023,14.516c0,3.087.16,5.917-.342,6.785-.821,1.706-2.95,1.495-3.92,1.164a4.818,4.818,0,0,1-2.071-2.151,2.828,2.828,0,0,0-.32-.514l-4.565,2.8a9.02,9.02,0,0,0,3.31,3.789,10.9,10.9,0,0,0,8.023.987,7.085,7.085,0,0,0,4.53-3.549c1.278-2.357,1-5.209.993-8.365C51.194,68.866,51.166,63.719,51.166,58.555Z" transform="translate(-17.125 -29.558)" fill="#323330"/>
  </g>
</svg>
