<svg xmlns="http://www.w3.org/2000/svg" width="64.857" height="91.547" viewBox="0 0 64.857 91.547">
  <g id="html5-original-wordmark" transform="translate(-19.811 -1.627)">
    <path id="パス_21" data-name="パス 21" d="M25.713,92.346l-5.9-66.2H84.668L78.76,92.335,52.2,99.7Z" transform="translate(0 -6.525)" fill="#e44d26"/>
    <path id="パス_22" data-name="パス 22" d="M64,96.034l21.461-5.95,5.05-56.563H64Z" transform="translate(-11.76 -8.488)" fill="#f16529"/>
    <path id="パス_23" data-name="パス 23" d="M56.617,61.018H45.872L45.131,52.7H56.617V44.583H36.257l.194,2.179,2,22.375h18.17Zm0,21.086-.036.01-9.042-2.442L46.96,73.2H38.809l1.137,12.749,16.632,4.617.037-.011Z" transform="translate(-4.377 -11.432)" fill="#ebebeb"/>
    <path id="パス_24" data-name="パス 24" d="M28.034,1.627H32.16V5.7h3.775V1.627h4.127V13.972H35.935V9.838H32.161v4.134H28.034V1.627ZM45.487,5.721H41.854V1.627H53.247V5.721H49.613v8.251H45.487V5.721Zm9.569-4.094h4.3L62,5.965l2.644-4.338h4.3V13.972h-4.11V7.853L62,12.242h-.072l-2.84-4.389v6.119H55.055V1.627Zm15.951,0h4.127V9.892h5.8v4.081h-9.93Z" transform="translate(-2.188 0)"/>
    <path id="パス_25" data-name="パス 25" d="M63.962,61.018v8.119h10l-.942,10.53-9.056,2.445v8.447l16.646-4.613.122-1.372L82.637,63.2l.2-2.18H63.962Zm0-16.435V52.7H83.575l.162-1.825.371-4.116.194-2.179Z" transform="translate(-11.75 -11.432)" fill="#fff"/>
  </g>
</svg>
