<svg xmlns="http://www.w3.org/2000/svg" width="61.772" height="61.772" viewBox="0 0 61.772 61.772">
  <path id="typescript-plain" d="M2,32.3V63.182H63.772V1.41H2Zm49.778-2.471a7.689,7.689,0,0,1,3.864,2.224,10.17,10.17,0,0,1,1.483,1.977c0,.079-2.669,1.883-4.294,2.891-.059.04-.3-.217-.558-.608a3.5,3.5,0,0,0-2.9-1.744c-1.873-.128-3.079.855-3.069,2.471a2.263,2.263,0,0,0,.267,1.156c.41.855,1.176,1.364,3.578,2.4,4.423,1.9,6.316,3.158,7.492,4.942a8.969,8.969,0,0,1,.717,7.531c-.988,2.57-3.41,4.314-6.834,4.892a18.937,18.937,0,0,1-4.7-.049,11.366,11.366,0,0,1-6.271-3.237A10.859,10.859,0,0,1,38.94,52.29a4.615,4.615,0,0,1,.568-.361l2.273-1.3L43.555,49.6l.371.549a8.292,8.292,0,0,0,2.342,2.244c1.977,1.038,4.675.894,6.009-.306a2.683,2.683,0,0,0,.341-3.42c-.494-.687-1.483-1.265-4.245-2.471-3.187-1.374-4.561-2.224-5.816-3.578a8.144,8.144,0,0,1-1.7-3.089,12.355,12.355,0,0,1-.109-3.953,7.514,7.514,0,0,1,6.335-5.866,15.646,15.646,0,0,1,4.69.128Zm-14.5,2.589v2.53h-8.02V57.791H23.571V34.94h-8.04V32.469a24.309,24.309,0,0,1,.069-2.55c.03-.04,4.942-.059,10.872-.049H37.25Z" transform="translate(-2 -1.41)" fill="#007acc"/>
</svg>
