<svg xmlns="http://www.w3.org/2000/svg" width="60.028" height="84.736" viewBox="0 0 60.028 84.736">
  <g id="css3-original-wordmark" transform="translate(-19.516 -1.207)">
    <path id="パス_6" data-name="パス 6" d="M72.722,4.344H67.74l5.181,5.622v2.677H62.25V9.509H67.43L62.25,3.886V1.207H72.722V4.344Zm-12.588,0H55.152l5.181,5.622v2.677H49.661V9.509h5.181L49.661,3.886V1.207H60.134Zm-12.465.128H42.293V9.378h5.376v3.265h-9.2V1.207h9.2V4.472Z" transform="translate(-6.166)" fill="#131313"/>
    <path id="パス_7" data-name="パス 7" d="M24.979,87.167,19.516,25.893H79.544L74.076,87.157,49.493,93.973,24.979,87.167Z" transform="translate(0 -8.03)" fill="#1572b6"/>
    <path id="パス_8" data-name="パス 8" d="M64,91.179l19.863-5.507,4.673-52.353H64v57.86Z" transform="translate(-14.47 -10.445)" fill="#33a9dc"/>
    <path id="パス_9" data-name="パス 9" d="M64,58.887h9.944l.688-7.7H64V43.677H82.844l-.18,2.016L80.818,66.4H64Z" transform="translate(-14.47 -13.814)" fill="#fff"/>
    <path id="パス_10" data-name="パス 10" d="M56.122,91.171l-.033.009-8.369-2.26-.536-5.994H39.641l1.053,11.8L56.087,99l.035-.01V91.171Z" transform="translate(-6.546 -26.582)" fill="#ebebeb"/>
    <path id="パス_11" data-name="パス 11" d="M73.315,76.886,72.409,86.95l-8.381,2.262v7.819l15.406-4.27.113-1.27,1.308-14.606h-7.54Z" transform="translate(-14.479 -24.617)" fill="#fff"/>
    <path id="パス_12" data-name="パス 12" d="M54.963,43.677v7.514H36.811L36.66,49.5l-.342-3.809-.18-2.016Zm-.026,15.211V66.4H46.674l-.15-1.689-.343-3.81L46,58.888Z" transform="translate(-5.407 -13.814)" fill="#ebebeb"/>
  </g>
</svg>
