<svg xmlns="http://www.w3.org/2000/svg" width="78.995" height="59.708" viewBox="0 0 78.995 59.708">
  <g id="nuxtjs-original" transform="translate(0 -15.629)">
    <path id="パス_30" data-name="パス 30" d="M24.234,73.235l-.175-.35a3.331,3.331,0,0,1-.175-2.277H4.974L32.99,20.882,44.721,42.069l3.852-2.8L36.842,18.08a4.853,4.853,0,0,0-3.852-2.451c-1.051,0-2.627.35-3.852,2.626L.772,68.508c-.175.526-1.4,2.8-.351,4.727a4.483,4.483,0,0,0,4.2,2.1H28.437c-2.451,0-3.677-1.05-4.2-2.1Z" transform="translate(0 0)" fill="#00c58e"/>
    <path id="パス_31" data-name="パス 31" d="M105.9,74.544,83.142,33.572c-.35-.35-1.576-2.627-3.852-2.627-1.05,0-2.626.525-3.852,2.627l-2.977,4.9V47.93L79.29,36.2l22.587,40.272H93.3a4.027,4.027,0,0,1-.351,2.451l-.175.175c-1.05,1.926-3.677,2.1-4.027,2.1h13.307a5.219,5.219,0,0,0,4.2-2.1C106.78,78.221,107.13,76.646,105.9,74.544Z" transform="translate(-27.741 -5.864)" fill="#108775"/>
    <path id="パス_32" data-name="パス 32" d="M80.288,83.771V83.6l.175-.35a4.315,4.315,0,0,0,.175-2.1l-.7-2.1L62.079,47.876l-2.627-4.727h-.175L56.65,47.876,38.791,79.043l-.7,2.1a4.2,4.2,0,0,0,.35,2.627,4.483,4.483,0,0,0,4.2,2.1H75.912c.525,0,3.152-.175,4.378-2.1ZM59.276,52.6,75.561,81.145H42.992Z" transform="translate(-14.554 -10.536)" fill="#2f495e"/>
  </g>
</svg>
