<svg xmlns="http://www.w3.org/2000/svg" width="67.811" height="68.024" viewBox="0 0 67.811 68.024">
  <path id="wordpress-plain" d="M35.842,69.628A33.958,33.958,0,0,0,69.7,35.607c0-18.468-15.075-33.677-33.086-34C17.7,1.271,1.89,16.619,1.885,35.231A33.979,33.979,0,0,0,35.842,69.628ZM35.787,3.255c17.962-.006,32.274,14.588,32.269,32.9-.006,17.292-14.7,31.758-32.255,31.761a32.333,32.333,0,0,1-.013-64.665ZM22.23,20.322c.294.979-.528,1.319-1.4,1.388l-2.907.222c3.524,10.5,7,20.842,10.549,31.426a5.341,5.341,0,0,0,.4-.668c1.951-5.831,3.913-11.658,5.814-17.5a3.019,3.019,0,0,0-.1-1.788c-1.006-2.9-2.211-5.745-3.093-8.683-.6-2.012-1.4-3.314-3.782-3.081-.405.04-.9-.832-1.353-1.282.549-.328,1.093-.93,1.647-.938q7.264-.112,14.53,0c.556.009,1.1.628,1.649.963-.48.439-.895,1.1-1.456,1.267a15.473,15.473,0,0,1-2.979.317L50.307,53.383c1.6-5.314,3.088-10.194,4.536-15.087A14.734,14.734,0,0,0,53.03,26a17.3,17.3,0,0,1-1.962-3.54,10.165,10.165,0,0,1-.588-4.508c.407-2.439,2.278-3.651,4.811-3.883C41.431,1.209,19.65,5.814,11.625,19.79c3.09-.142,6.039-.33,8.991-.37A2.017,2.017,0,0,1,22.23,20.322Zm5.522,42.561a5.015,5.015,0,0,0-.119.711,29.54,29.54,0,0,0,17.827-.484L36.3,38.022c-2.931,8.521-5.742,16.689-8.549,24.86Zm-4.616-1.134L9.337,23.893C3.112,36.054,7.847,54.607,23.137,61.748ZM64.855,37.424c.438-5.75-1.546-13.711-3.259-14.806-.191,2.115-.058,4.468-.665,6.612-1.428,5.052-3.175,10.016-4.858,14.993-1.829,5.41-3.729,10.8-5.6,16.193,8.784-5.207,13.611-12.892,14.38-22.993Z" transform="translate(-1.885 -1.603)" fill="#494949" fill-rule="evenodd"/>
</svg>
